Coordinates
version=1
nRows=22
nColumns=24
inDegrees=yes

Units are S.I. units (second, meters, Newtons, ...)
Angles are in degrees.

endheader
time	pelvis_tilt	pelvis_list	pelvis_rotation	pelvis_tx	pelvis_ty	pelvis_tz	hip_flexion_r	hip_adduction_r	hip_rotation_r	knee_angle_r	ankle_angle_r	subtalar_angle_r	mtp_angle_r	hip_flexion_l	hip_adduction_l	hip_rotation_l	knee_angle_l	ankle_angle_l	subtalar_angle_l	mtp_angle_l	lumbar_extension	lumbar_bending	lumbar_rotation
      0.84583333	      4.08041522	     -5.48040916	     -3.50417990	     -0.49312314	      1.02305103	      0.31362396	      5.49893504	      8.13973476	     -1.94161201	    -12.39615143	     -4.07263817	    -13.75079945	     -2.96654339	     13.69930614	    -11.47110034	     -7.98278123	    -71.84083872	      1.92939490	    -14.09660775	     -9.95752709	    -14.61408103	      7.35924150	      7.17963319
      0.85000000	      4.07211775	     -5.36819708	     -3.60992551	     -0.48798497	      1.02389158	      0.31399827	      5.04093668	      8.02933507	     -1.83506304	    -12.10873271	     -4.03142275	    -13.73403545	     -2.95905320	     14.28573084	    -11.34515583	     -7.98814062	    -71.52349653	      2.14173986	    -14.04399217	    -10.01474957	    -14.62458772	      7.20886673	      7.22840208
      0.85416667	      4.09049570	     -5.25062683	     -3.74477740	     -0.48285445	      1.02475191	      0.31443083	      4.55725891	      7.91227818	     -1.70960444	    -11.82843917	     -3.97240751	    -13.67850025	     -2.94706316	     14.80886002	    -11.22431653	     -8.04198737	    -71.12958510	      2.37163234	    -13.97841460	    -10.08678045	    -14.66764761	      7.03577858	      7.34884038
      0.85833333	      4.19618161	     -5.12698492	     -3.95897298	     -0.47769932	      1.02576169	      0.31507587	      3.96910560	      7.79540558	     -1.48279715	    -11.54327442	     -3.84865695	    -13.60289493	     -2.91223161	     15.16694024	    -11.13539137	     -8.22232969	    -70.62310586	      2.53124019	    -13.90158120	    -10.27880952	    -14.81478908	      6.80545700	      7.64528948
      0.86250000	      4.25924325	     -5.01104843	     -4.14190052	     -0.47253462	      1.02665840	      0.31561007	      3.42752721	      7.67844214	     -1.29682136	    -11.24916700	     -3.79325064	    -13.58062209	     -2.87374242	     15.57052356	    -11.03993876	     -8.36576401	    -70.07275694	      2.71804385	    -13.85554451	    -10.47914465	    -14.90749113	      6.62249463	      7.82958785
      0.86666667	      4.25454461	     -4.91388466	     -4.26795689	     -0.46737807	      1.02737274	      0.31598201	      2.96813811	      7.57114641	     -1.20329467	    -10.96257736	     -3.76447812	    -13.52083957	     -2.85997615	     16.06643244	    -10.94487778	     -8.44076712	    -69.50431510	      2.93882352	    -13.84194830	    -10.54008826	    -14.91859236	      6.48072888	      7.90720055
      0.87083333	      4.40949669	     -4.77967021	     -4.49264325	     -0.46219721	      1.02838376	      0.31659820	      2.32850729	      7.42150253	     -0.99569842	    -10.67710121	     -3.62540912	    -13.41594586	     -2.81693587	     16.29354359	    -10.84659372	     -8.67954070	    -68.78643526	      3.06918387	    -13.80370987	    -10.71245832	    -15.11269292	      6.24234382	      8.16742311
      0.87500000	      4.50823737	     -4.67566790	     -4.68923889	     -0.45700343	      1.02924416	      0.31715228	      1.74441686	      7.30364048	     -0.80824797	    -10.37294909	     -3.58406754	    -13.37316761	     -2.76153244	     16.58273501	    -10.77685100	     -8.88329586	    -68.04587752	      3.25173571	    -13.79992492	    -10.92882167	    -15.24349286	      6.04491843	      8.37539087
      0.87916667	      4.58374759	     -4.56043644	     -4.86232893	     -0.45180986	      1.03001578	      0.31764120	      1.19831344	      7.16679615	     -0.66696680	    -10.09557874	     -3.48054792	    -13.29535487	     -2.72157639	     16.88847475	    -10.68681087	     -9.06504921	    -67.24810641	      3.38688448	    -13.74767185	    -11.07185136	    -15.33838472	      5.84596189	      8.51847839
      0.88333333	      4.70688540	     -4.45523482	     -5.05254800	     -0.44659339	      1.03083936	      0.31815335	      0.59339418	      7.03335268	     -0.50983501	     -9.80289340	     -3.41044950	    -13.22582057	     -2.67705362	     17.10374791	    -10.61306369	     -9.29001719	    -66.38029379	      3.53064418	    -13.74530555	    -11.22712022	    -15.48661202	      5.65245276	      8.71128821
      0.88750000	      4.79900867	     -4.35647556	     -5.24568710	     -0.44136595	      1.03156756	      0.31867788	      0.02749497	      6.90642197	     -0.35680136	     -9.52200271	     -3.33104148	    -13.15713013	     -2.63485152	     17.33298244	    -10.55597154	     -9.52787606	    -65.46383734	      3.66937812	    -13.74091556	    -11.36911195	    -15.59194789	      5.46316532	      8.88163276
      0.89166667	      4.92078003	     -4.26009974	     -5.44994632	     -0.43616854	      1.03230711	      0.31920763	     -0.57052747	      6.77629251	     -0.16311670	     -9.23691227	     -3.25218592	    -13.08420611	     -2.58682160	     17.50271625	    -10.49897819	     -9.78619274	    -64.48653633	      3.80166293	    -13.76252184	    -11.52947145	    -15.75057783	      5.27443475	      9.08028183
      0.89583333	      5.05480145	     -4.16880810	     -5.65387046	     -0.43094617	      1.03302255	      0.31975336	     -1.17908509	      6.64649079	      0.01442468	     -8.95998002	     -3.16184174	    -13.01927032	     -2.54073446	     17.63176548	    -10.45385382	    -10.06514728	    -63.45001566	      3.91483876	    -13.77440405	    -11.68773588	    -15.90712902	      5.08577275	      9.26708378
      0.90000000	      5.16700250	     -4.09401981	     -5.86885284	     -0.42570796	      1.03365880	      0.32031715	     -1.76320750	      6.53338340	      0.20638275	     -8.68614819	     -3.09393074	    -12.95863985	     -2.48838540	     17.75997347	    -10.43621163	    -10.36714801	    -62.37154038	      4.04387285	    -13.81260750	    -11.87870863	    -16.03861503	      4.91082961	      9.48243759
      0.90416667	      5.28576658	     -4.01156351	     -6.07412842	     -0.42048864	      1.03425436	      0.32085614	     -2.34591234	      6.40706819	      0.39989451	     -8.42841019	     -2.98339674	    -12.90566436	     -2.44593682	     17.86193525	    -10.40375535	    -10.66720707	    -61.23280921	      4.12227060	    -13.83550730	    -12.04215261	    -16.17908589	      4.72735029	      9.64977782
      0.90833333	      5.37269442	     -3.94272940	     -6.27696938	     -0.41522345	      1.03475574	      0.32141056	     -2.89333435	      6.29649311	      0.56912036	     -8.17633946	     -2.89554013	    -12.86961589	     -2.41113776	     17.97606456	    -10.39736033	    -10.98509930	    -60.05407005	      4.19990557	    -13.87818413	    -12.19339760	    -16.26964726	      4.55301068	      9.82497663
      0.91250000	      5.49926056	     -3.88967414	     -6.48965393	     -0.41003058	      1.03526888	      0.32195715	     -3.48329329	      6.19404883	      0.80236695	     -7.91886694	     -2.79840767	    -12.82507399	     -2.37563325	     18.02326184	    -10.40111111	    -11.31506283	    -58.82370477	      4.27980846	    -13.92966613	    -12.36976302	    -16.42958225	      4.40528695	     10.03626951
      0.91666667	      5.58258780	     -3.83763169	     -6.70092092	     -0.40477861	      1.03566796	      0.32251379	     -4.01868453	      6.09355818	      0.99813594	     -7.68451127	     -2.69062366	    -12.79119109	     -2.34690337	     18.09392146	    -10.41579128	    -11.66594368	    -57.55040656	      4.33474673	    -14.00414499	    -12.53849577	    -16.52215607	      4.25012322	     10.21420760
      0.92083333	      5.69968662	     -3.82778719	     -6.90959978	     -0.39956490	      1.03606210	      0.32306678	     -4.60147456	      6.03175060	      1.23436796	     -7.42731285	     -2.63682969	    -12.76984050	     -2.30987291	     18.10772919	    -10.47471829	    -12.01998743	    -56.24445762	      4.43389366	    -14.03927113	    -12.81207753	    -16.66999688	      4.14370364	     10.47728640
      0.92500000	      5.63577853	     -3.79801631	     -7.04898706	     -0.39429104	      1.03610412	      0.32340908	     -4.96405903	      5.96462812	      1.35883151	     -7.22249398	     -2.54785079	    -12.72906765	     -2.30103929	     18.33968308	    -10.48803616	    -12.27590254	    -54.92410637	      4.47688448	    -14.13586864	    -12.89497400	    -16.58570385	      4.06773184	     10.49715825
      0.92916667	      5.79545827	     -3.78343875	     -7.29605908	     -0.38911226	      1.03648504	      0.32404009	     -5.57324361	      5.88324407	      1.63033673	     -7.01194529	     -2.34680766	    -12.68123370	     -2.28406244	     18.24119014	    -10.55457111	    -12.72771345	    -53.50045561	      4.47977854	    -14.24542660	    -13.10706777	    -16.79421218	      3.92752814	     10.77011130
      0.93333333	      5.82098988	     -3.77944017	     -7.48597100	     -0.38387417	      1.03658966	      0.32452426	     -6.03535537	      5.82756310	      1.83224968	     -6.80518861	     -2.22942375	    -12.65983484	     -2.27612857	     18.30010661	    -10.61755141	    -13.10067513	    -52.07009744	      4.49721370	    -14.34740020	    -13.29886592	    -16.83114296	      3.84146381	     10.91241141
